/* XPM */
static char *result[] = {
/* columns rows colors chars-per-pixel */
"64 64 256 2 ",
"   c black",
".  c #010101",
"X  c #020202",
"o  c gray1",
"O  c #040404",
"+  c gray2",
"@  c #060606",
"#  c #070707",
"$  c gray3",
"%  c #090909",
"&  c gray4",
"*  c #0B0B0B",
"=  c #0C0C0C",
"-  c gray5",
";  c #0E0E0E",
":  c gray6",
">  c #101010",
",  c #111111",
"<  c gray7",
"1  c #131313",
"2  c gray8",
"3  c #151515",
"4  c #161616",
"5  c gray9",
"6  c #181818",
"7  c #191919",
"8  c gray10",
"9  c #1B1B1B",
"0  c gray11",
"q  c #1D1D1D",
"w  c #1E1E1E",
"e  c gray12",
"r  c #202020",
"t  c gray13",
"y  c #222222",
"u  c #232323",
"i  c gray14",
"p  c #252525",
"a  c gray15",
"s  c #272727",
"d  c #282828",
"f  c gray16",
"g  c #2A2A2A",
"h  c gray17",
"j  c #2C2C2C",
"k  c #2D2D2D",
"l  c gray18",
"z  c #2F2F2F",
"x  c gray19",
"c  c #313131",
"v  c #323232",
"b  c gray20",
"n  c #343434",
"m  c #353535",
"M  c gray21",
"N  c #373737",
"B  c gray22",
"V  c #393939",
"C  c #3A3A3A",
"Z  c gray23",
"A  c #3C3C3C",
"S  c gray24",
"D  c #3E3E3E",
"F  c #3F3F3F",
"G  c #414141",
"H  c gray26",
"J  c #434343",
"K  c #444444",
"L  c gray27",
"P  c gray28",
"I  c #484848",
"U  c black",
"Y  c black",
"T  c black",
"R  c black",
"E  c black",
"W  c black",
"Q  c black",
"!  c black",
"~  c black",
"^  c black",
"/  c black",
"(  c black",
")  c black",
"_  c black",
"`  c black",
"'  c black",
"]  c black",
"[  c black",
"{  c black",
"}  c black",
"|  c black",
" . c black",
".. c black",
"X. c black",
"o. c black",
"O. c black",
"+. c black",
"@. c black",
"#. c black",
"$. c black",
"%. c black",
"&. c black",
"*. c black",
"=. c black",
"-. c black",
";. c black",
":. c black",
">. c black",
",. c black",
"<. c black",
"1. c black",
"2. c black",
"3. c black",
"4. c black",
"5. c black",
"6. c black",
"7. c black",
"8. c black",
"9. c black",
"0. c black",
"q. c black",
"w. c black",
"e. c black",
"r. c black",
"t. c black",
"y. c black",
"u. c black",
"i. c black",
"p. c black",
"a. c black",
"s. c black",
"d. c black",
"f. c black",
"g. c black",
"h. c black",
"j. c black",
"k. c black",
"l. c black",
"z. c black",
"x. c black",
"c. c black",
"v. c black",
"b. c black",
"n. c black",
"m. c black",
"M. c black",
"N. c black",
"B. c black",
"V. c black",
"C. c black",
"Z. c black",
"A. c black",
"S. c black",
"D. c black",
"F. c black",
"G. c black",
"H. c black",
"J. c black",
"K. c black",
"L. c black",
"P. c black",
"I. c black",
"U. c black",
"Y. c black",
"T. c black",
"R. c black",
"E. c black",
"W. c black",
"Q. c black",
"!. c black",
"~. c black",
"^. c black",
"/. c black",
"(. c black",
"). c black",
"_. c black",
"`. c black",
"'. c black",
"]. c black",
"[. c black",
"{. c black",
"}. c black",
"|. c black",
" X c black",
".X c black",
"XX c black",
"oX c black",
"OX c black",
"+X c black",
"@X c black",
"#X c black",
"$X c black",
"%X c black",
"&X c black",
"*X c black",
"=X c black",
"-X c black",
";X c black",
":X c black",
">X c black",
",X c black",
"<X c black",
"1X c black",
"2X c black",
"3X c black",
"4X c black",
"5X c black",
"6X c black",
"7X c black",
"8X c black",
"9X c black",
"0X c black",
"qX c black",
"wX c black",
"eX c black",
"rX c black",
"tX c black",
"yX c black",
"uX c black",
"iX c black",
"pX c black",
"aX c black",
"sX c black",
"dX c black",
"fX c black",
"gX c black",
"hX c black",
"jX c black",
"kX c black",
"lX c black",
"zX c black",
"xX c black",
"cX c black",
"vX c black",
"bX c black",
"nX c black",
"mX c black",
"MX c black",
"NX c black",
"BX c black",
"VX c black",
"CX c black",
"ZX c black",
"AX c black",
"SX c black",
"DX c black",
"FX c black",
"GX c black",
"HX c black",
"JX c black",
"KX c black",
"LX c black",
"PX c black",
"IX c black",
"UX c black",
/* pixels */
"  n z f 9 z g c n f a M M B b z f i x x B D A M m c g 9 3 # 9 w < 3 = = = = 3 1 r a a u s r r < 0 9 0 9 1 0 = = < 5 4 < p r 3   ",
"  V t   # 4 8 i i #   + < f 2 2 9 4 i x k h b j f 8 q # # # 3 e , , 8 e 4 , , t t p u k f a < q b f j j k x i q 2 - 4 9     r   ",
";       , 8 t u f 6 4 i f e i d t i 8 u e p e 9 8 8 e ,     $ 4 $ X > 6 , , > * , > > *     X > k t q 8 1 4 : > *   , &     X   ",
". %     4 : 8 r e 3 9 t i w d d 2 > 2 9 4 % # 2 > - w 9 @   & 2 - - 2 4 - > , p 2 t f k f c H H p s p e j p d r p u p t #       ",
"; >   # 4 8 3 i t i r i M B q f u q e 8 9 6 p p e 8 p e > @ e f 6 6 h u t 6 6 u 9 , 1 e f e 4 ; , 4 > # > ; 2 = > u B   r 0 X   ",
"7 4 2 i Z i 3 c r r t d l u q t r 4 e 6 i f p i q i p u 2   4 y 0 8 p t p 6 q t , 6 6 j f e e 4 , 0 q e 4 > : 9 e p 4           ",
"4 > # 9 .     e 9 q k l m c k g l k j d u 6 r 6 % 2 r u q # 2 9 i u p p e e e u e s s h t 2 2 6 $ 2 p q k g t 3 w a     ; - ;   ",
"#     . X     - ; 0 t t 6 : 9 4 ; - > * > ; ; - > & > o #     % ; & 3 9 ; . o = # ; * & % % o         + o . #   . * =           ",
"                                                                                                                                ",
"y = . 2                                                                                                                         ",
"F x , y 4 X                   X         X @ X # % $                                                             # *     X O     ",
"v j e p 4 + ;                     %     O # : X # # ; % @   @   % $ $ @                                         + *   O         ",
"x i p C 4 % > ;                               + + . . +             . . . # +   @                         .     ; = X , 2 2     ",
"r j e j , % i -         O         2 # X %   # # . # = # # # ; O       & # #     . # = = & . +                   4 r O 4 s y .   ",
"2 p e e 8 , ; >                   # @ # @ + . +                                             .     .     @ - .   d 6 @ ; t e     ",
"# i e t 9 , % %                   X X . X - > - : 2 , = - 9 w 9 4 t = .   + + . = = # = : ; # # = #   o %       g 1 ; X f u .   ",
"  q 6 e > 4 @ o                                                                                                 l e 8   9 t %   ",
"+ 2 6 r < 9 # o                   ; * ; 2 3 ; > 4 % % = > 3 9 4 2 4 q 6 w 4 > - , =                   % ; 3 @   G 6 , X m r     ",
". $ q 4 ; > i %               + o . X   O                         & - > ;   & # # # # - 2 % X           # r ,   b 1 :   j p >   ",
", @ e 4 , 4 p             . + % # # # + +           2 2 $ 4 4 % # # % %   O   @ > 6 8 q 6 8 3 q e q 4 8 0 4 2   r 1 * 3 N b 2   ",
"4 $ i q > 3 d o           . . . # # % ; % # . X o - 4 , 4 i 9 :       o   # % : 6 4 4 4 * 2 , e e e r u r e ;   p 2 2 a u m >   ",
"g - i e # 9 s #                         O *       @ # * ; % @ # . . # .         # ; + % .   # # # > > # X > &   k * 2 4 e b @   ",
"c 2 u q * > p %           . % 3 % # # # O O     # % # O o X % % - # & % X O X # * * # * 2 = - % > 4 * # X       g % 8 , q k ;   ",
"k 4 u 9 # 4 4 X               +   +               . X + + # ; & - o   o   +       # X - ; - > - # = + X O &     9 2 e 3 4 g #   ",
"g e r 2 ; 9 8                     o # + < % #         X . X #             +   o o # % # % - o + X + . .         r 4 4 ; 4 i #   ",
"c u e 6 2 4 %                                                                                                   k q 9 + q q #   ",
"c e e 6 3 6 % o   + - o       ; 3 4 4 > 9 6 q 4 q 9 *     # 2 * % = # # o , ; % & 2 .                           G q 4 # i p o   ",
"c u e e 3 e   o   # O       X * % - % 4 5 4 , : : 2 , * # > 4 4 > 4 % # 6 8 3 : - : , 3 * @ X   %               J 8 : 3 p e     ",
"c u 4 8 4 %           X $ #       X o : # 1 * o ; 2 2 q 9 4 9 > > ; ; %   X # , > : - > 4 - # - @               e , > ; p 2 X   ",
"g i 8 6 2 3 &         X   X   O %   # q 3 2 : # ; 3 7 3 3 2 w q 2 ; 2 2 2 2 ; ; - ; ; 2 q # #                   6 6 2 3 f e #   ",
"c f 0 f 4 4 %       O X X X     % q 6 0 , : % * 2 : 2 4 2 2 > 2 4 : > q q w q 4 4 - - % -               X       e : 6 3 k t .   ",
"c k p m 9 5 *         @ @ @ @ & - > 4 4 # : @ % X % - ; # # , 4 : 4 , - 4 4 2 q 3 > ; 3 , % X $ O       @ %     t 2 i 3 l q     ",
"S x i b r 2 %                                                                                                   e q r 2 j w     ",
"K c u m 2 + %                                                                                         X X o     > 9 q ; d 2 4   ",
"I w f m 6 # .                         +     # #     & ; ;     : : ; 3 4 2 4 > 6 0 4 % q , *   % , > t t e + %   4 i p 2 j 2 #   ",
"L 9 i l 7 # .                               . . . # 3 3 + = : 3 < + ; 5 q w 4 4 6 6   : q #   2 6 4 t l l d     & q r 3 l f #   ",
"K c g f 9 = .                                           . # o @ +   # + # ; , # > #   > ;     . O o * > , *     q r i , x t o   ",
"A v t t 9 : ;           + +                 @ . + . + . + # % > > . % * % - , 6 q 6 % 4 4     % 4 * 8 e t t %   w e q # j 2 X   ",
"L M y t f i 4           o = ; @ = : : < # & ; # # ; = 3 , > - % - % > , 4 e , 6 6 6 - , >       > > - , 6 = %   9 q 6 * x 2 .   ",
"S v y t w > 3         o       . = # = . # + #   . + .               # # X # # + % # . # #       - ; > ; 8 2 & @ w e p + j 2 X   ",
"S M q t 6 2 3                                                                                                   9 4 6 , f 4     ",
"S c w > u 4 6                                               # # . = # # = #   < 3 , O         # 4 % r 7 ; % =   3 > 4 , j 9     ",
"A c i 6 x 2 u                     > 4 4 4 2 4 -   # ; ; # 2 %   +   . #     + + + .                 # # ; 9 ;   = 6 a 5 k 7     ",
"S f g e B % u     + 1 ; 4 r l 9 4 2 2 4 , * % ; > > , > , % : % % % > > , ; > , > > 3 , 4 .   # , 3 , ; & ; #   9 q j # j 9     ",
"S h z 6 q   e       o     * , # > * .   # % # X 2 > * ; X   o & # # # # # ; # % * & & , +       ; = : 2 2 p ;   9 i d ; f 9 .   ",
"S w i 2 9 # 9                           +         o # %   . * ; # # # # ; ; * # = # ; ; #     = = & = # & > @   9 4 u - q * #   ",
"Z i i 3 e   2         X   O : $ + + * % #       % % # & o > > #     . > > > > > 3 - , 4 9   . + ; + # 2 4 9 #   w : u 2 u ; @   ",
"L w f ; r O %       - % ; : - 2 , 6 : , - X   . 2 > 2 % > > , # o   + 4 ; # 3 , 7 , 2 2 ; . . : ; 4 , 2 ; >     b 4 t , r 3 =   ",
"N & r ; u . O                                                                                                   i , e * u g #   ",
"A 9 w ; d , X                                                                                                   c t p ; d t %   ",
"S h t = s - @         > 3 r t f i 9 2 2 7 9 ; % # + # o # r z i r g 9 7 > 4 w 7 4 - - X       @ @ % * @ @       D 8 e 7 j ; =   ",
"N i r = t 2         @ : - # # * 4 6 9 e t t w 5 r i w 2 r i w e 3 4 4 4 6 4 9 1 1 o 1 # : > % ; ; % # + X X X   A e p 7 x   9   ",
"Z M 3 : j # +         % 6 6 4 1 q e 2 9 w , < 3 4 q 3 9 t w r < & ; ; 4 5 4 4 + o   % + % %   #                 G s p 6 f   :   ",
"N M , > t =         X     # % # - - ; = < @ + . + = 3 ; = = ; + + . @ .                                 # ; #   f d e , q 4 8   ",
"Z i 2 3 f #       # : # $ 0 e - ; - : ; - , & # # 3 4 % o #   # o   o   # X % & 2 & < 4 3 # ; ; = = # ; ; ; .   c s e 1 i : >   ",
"M 4 q > q 7 X       O # * > % : ; - % X ; % # : # X +     + 3 5 4 : i 4 e ; 2 3 9 2 2 3 , = ; = . # : & +       f y p - 3 2 X   ",
"q 4 7 ; 1 #                   + + # X # % + X o     + o # + . #       # .                                       4 - *   %       ",
"= @ +                                                                                                           = = = = @ . @   ",
"# g : 2 3 3 2 % ; 8 r i i t q b m C D A M i t c q g G J J G C c b k z k f p i 3 t i 8 3 2 # * % - ; l i a B B g B F b B f 4 4   ",
"+ g a a   3 6 , 6 , , 8 6 5 * 0 u , 4 4 e * > 6 X , 4 1 5 e e e q e u 9 u e 0 2 X   X - ,         % , 8 e t 6 r p a 6 2 s < X   ",
"3 C 1     9 + j t j d t d t r p j , e e s 0 : 8 $ 8 r t u t p l p y j i d t i k t C e j p i 2 6 , 4 , 6 6 4 > 6 q f r       X . ",
", m % k V 7   6 q e e e 8 p t i 4 X 8 > > #   e - 4 i t 4 : 8 f f i i i i r q > i B 9 s 9 3 i r 2 w e r e 4 4 4 q u P     + #   ",
"= f X - ,     * , e , 6 6 > = # -       X X   o X   : * o + = 6 > * o % ; > ; 3 i =   o o O   o ; ; ; # + @ o o # o       & #   ",
"                                                                                                                                "
};
