/* XPM */
static char *result[] = {
/* columns rows colors chars-per-pixel */
"64 64 72 1 ",
"  c black",
". c #010101",
"X c #020202",
"o c gray1",
"O c #040404",
"+ c gray2",
"@ c #060606",
"# c #070707",
"$ c gray3",
"% c #090909",
"& c gray4",
"* c #0B0B0B",
"= c #0C0C0C",
"- c gray5",
"; c #0E0E0E",
": c gray6",
"> c #101010",
", c #111111",
"< c gray7",
"1 c #131313",
"2 c gray8",
"3 c #151515",
"4 c #161616",
"5 c gray9",
"6 c #181818",
"7 c #191919",
"8 c gray10",
"9 c #1B1B1B",
"0 c gray11",
"q c #1D1D1D",
"w c #1E1E1E",
"e c gray12",
"r c #202020",
"t c gray13",
"y c #222222",
"u c #232323",
"i c gray14",
"p c #252525",
"a c gray15",
"s c #272727",
"d c #282828",
"f c gray16",
"g c #2A2A2A",
"h c gray17",
"j c #2C2C2C",
"k c #2D2D2D",
"l c gray18",
"z c #2F2F2F",
"x c gray19",
"c c #313131",
"v c #323232",
"b c gray20",
"n c #343434",
"m c #353535",
"M c gray21",
"N c #373737",
"B c gray22",
"V c #393939",
"C c #3A3A3A",
"Z c gray23",
"A c #3C3C3C",
"S c gray24",
"D c #3E3E3E",
"F c #3F3F3F",
"G c #414141",
"H c gray26",
"J c #434343",
"K c #444444",
"L c gray27",
"P c gray28",
"I c #484848",
"U c None",
/* pixels */
" nzf9zgcnfaMMBbzfixxBDAMmcg93#9w<3====31raausrr<090910==<54<pr3 ",
" Vt #48ii# +<f2294ixkhbjf8q###3e,,8e4,,ttpukfa<qbfjjkxiq2-49  r ",
";   ,8tuf64ifeidti8uepe988e,  $4$X>6,,>*,>>*  X>ktq814:>* ,&  X ",
".%  4:8re39tiwdd2>294%#2>-w9@ &2--24->,p2tfkfcHHpspejpdrpupt#   ",
";> #483itiriMBqfuqe896ppe8pe>@ef66hut66u9,1efe4;,4>#>;2=>uB r0X ",
"742iZi3crrtdluqtr4e6ifpiqipu2 4y08ptp6qt,66jfee4,0qe4>:9ep4     ",
"4>#9.  e9qklmckglkjdu6r6%2ruq#29iuppeeeuessht226$2pqkgt3wa  ;-; ",
"#  .X  %# O26:94;->*>;;->&>o#  %;&39;.o=#;*&%%o    +o.# .*=     ",
"                                                                ",
"y=.2                                                  #         ",
"Fx,y4X              X@X#%$                      UU  X#  #*  XO  ",
"vjep4+;             X#:X##X   UUUUUUU          UU   -Xp %* O    ",
"xipC4%>.    *%  U         UUUUUUUU   #+ @     UUUU >+4# ;- ,26  ",
"rjej,%i    % ## UUU @ UUUUUUUUUUUUU      UUUUUUUUU  66,#40O9ut. ",
"2pee8,;-   %: O UUUU  UUUUUUUUUUUUUUUU  UUUUUUUUUUUU -  d6@;te  ",
"#ietq,%%   U % UUUUUU UUUUUUUUUUUUUUUUUUUUUUUUUUUUUUUU  g1;Xfu. ",
" q6e;4@#   UU  UUUUUUUUUUUUUUUUUUUUUUUUUUUUUUUUUUUUUU   le8 9t% ",
"+26r<9oo   UUUUUUUUUUUUUUUUUUUUUUUUUUUUUUUUUUUUUUUUU    G6,omr  ",
".$q4;>i%    UUUUUUUUUUUUUUUUUUUUUUUUUUUUUUUUUUUUUUUU    c1: jp> ",
",@e4,4p     UUUUUUUUUUUUUUUUUUUUUUUUUUUUUUUUUUUUUUU     q1*3Nb2 ",
"4$iq>3do     UUUUUUUUUUUUUUUUUUUUUUUUUUUUUUUUUUUUU      g22aum> ",
"g-ie#9s#     UUUUUUUUUUUUUUUUUUUUUUUUUUUUUUUUUUUU       d*24eb@ ",
"c2uq*>p+       UUUUUUUUUUUUUUUUUUUUUUUUUUUUUUUUU        g%8,qk; ",
"k4u9#48X       UUUUUUUUUUUUUUUUUUUUUUUUUUUUUUUUUUUU  .  92e34g# ",
"ger2;48       UUUUUUUUUUUUUUUUUUUUUUUUUUUUUUUUUUUU      r44;4i# ",
"cue624-        UUUUUUUUUUUUUUUUUUUUUUUUUUUUUUUUUUUU     xq9+qq# ",
"cue636%o +%@     UUUUUUUUUUUUUUUUUUUUUUUUUUUUUUU        Sq4#ipo ",
"cuee3e o #O    *UUUUUUUUUUUUUUUUUUUUUUUUUUUUUUUUUU      J8:3pe  ",
"cu484%     X@#   UUUUUUUUUUUUUUUUUUUUUUUUUUUUUUUUU      e,>;p2X ",
"gi8623&    X X    UUUUUUUUUUUUUUUUUUUUUUUUUUUUUUU       6623fe# ",
"cf0f44%        UUUUUUUUUUUUUUUUUUUUUUUUUUUUUUUUUUUUU    e:63kt. ",
"ckpm95*   UUUUUUUUUUUUUUUUUUUUUUUUUUUUUUUUUUUUUUUUUUU%  t2i3lq  ",
"Sxibr2%     UUUUUUUUUUUUUUUUUUUUUUUUUUUUUUUUUUUUUUUU    e9r2jw  ",
"Kcum2+%    UUUUUUUUUUUUUUUUUUUUUUUUUUUUUUUUUUUUUUUU Xo  ,9q;d24 ",
"Iwfm6#.    UUUUUUUUUUUUUUUUUUUUUUUUUUUUUUUUUUUUUUU .e+% 4ip2j2# ",
"L9il7#.    UUUUUUUUUUUUUUUUUUUUUUUUUUUUUUUUUUUUUUUUUld  &qr3lf# ",
"Kcgf9=.     UUUUUUUUUUUUUUUUUUUUUUUUUUUUUUUUUUUUUU o,*  qri,xto ",
"Avtt9:;     UUUUUUUUUUUUUUUUUUUUUUUUUUUUUUUUUUUUU =ett% weq#j2X ",
"LMytfi4    UUUUUUUUUUUUUUUUUUUUUUUUUUUUUUUUUUUUUUU ,6=% 9q6*x2. ",
"Svytw>3     UUUUUUUUUUUUUUUUUUUUUUUUUUUUUUUUUUUUUUU  #&@wep+j2X ",
"SMqt623    UUUUUUUUUUUUUUUUUUUUUUUUUUUUUUUUUUUUUUUUUUU  946,f4  ",
"Scw>u46    UUUUUUUUUUUUUUUUUUUUUUUUUUUUUUUUUUUUUUUUU  = 3>4,j9  ",
"Aci6x2u    UUUUUUUUUUUUUUUUUUUUUUUUUUUUUUUUUUUUUUUU ;9; =6a5k7  ",
"SfgeB%u  UUUUUUUUUUUUUUUUUUUUUUUUUUUUUUUUUUUUUUUUUU &;# 9qj#j9  ",
"Shz6r e  UUUUUUUUUUUUUUUUUUUUUUUUUUUUUUUUUUUUUUUUUUU i> 9id;f9. ",
"Swi29oe   UUUUUUUUUUUUUUUUUUUUUUUUUUUUUUUUUUUUUUUUUUUXX q2u-q*# ",
"Zii3e >   UUUUUUUUUUUUUUUUUUUUUUUUUUUUUUUUUUUUUUUUUUU # w:u2u;@ ",
"Lwi;rO%  UUUUUUUUUUUUUUUUUUUUUUUUUUUUUUUUUUUUUUUUUUUUU  b4t,r3= ",
"N&r;u.O   UUUUUUUUUUUUUUUUUUUUUUUUUUUUUUUUUUUUUUUU UUUU i,e*ug# ",
"A9w;d,X  UUUUUUUUUUUUUUUUUUUUUUUUUUUUUUUUUUUUUUUUU      ctp;dt% ",
"Sht=s-@  $ UUUUUUUUUUUUUUUUUUUUUUUUUUUUUUUUUUUUUUUU-g ; D8e7j;= ",
"Nir=t2  9 b UUUUUUUUUUUUUUUUUUUUUUUUUUUUUUUUUUUUUUU 23= Aep7x 9 ",
"ZM3:j#++re0$UU UUUUUUUUUUUUUUUUUUUUUUUUUUUUUUUUUUUU >,; Gpp6f : ",
"NM,>t=  r86rX& U          UUUUUUUUUUUUUUUUUUUUU   UU> % ahe-r48 ",
"Zi23f# 24@4@>X%      O#UUUUUUUUUUUUUUUU      UUU     *  xde1i:> ",
"M4q>q7X@X, %@        +oX   UUUUUUUUUUU 3922<;           fyp-32X ",
"q47;1#  @XXXX       #  o       UUUUUU                   >-* %   ",
"=@+                       UUUUUUUUUUUU                  ====@.@ ",
"#g:3232#;q4259qBmCDSmiwcqgf<<,;%&#%#+2i3ti833#*&-=liiBvgBFbBf44 ",
"+gai 4636-3465*0e,44e:>6X,415eeeq0ueee02X X-,    %,8et6rpa62s<X ",
"3C1  9Ojujsyjtrpj:ees6:8$8rtutplsyjrdtiktCejpi26,4,66426qfr   X.",
",m%kV7 6qee98pti4O8>># e-4it4:8ffiiiirq>iB9s93ir2were444quP  +# ",
"=fX;,  *,t,66>=#*   oX oX :*o+=6>*o%;>;3i= oX  o;;;#O#oo#o   &# ",
"                                                                "
};
