/* XPM */
static char *_ac7dd10af5c46759c2fdc1cb30b4589FSefOgq550l62vnO[] = {
/* columns rows colors chars-per-pixel */
"64 64 223 2 ",
"   c white",
".  c #FEFEFE",
"X  c #F8FBF7",
"o  c #E5F3E0",
"O  c #D6EBCD",
"+  c #D2EAC8",
"@  c #D3EACA",
"#  c #EAF5E6",
"$  c #FBFDFB",
"%  c #FCFDFC",
"&  c #E4F2DE",
"*  c #B2DBA1",
"=  c #9DD188",
"-  c #83C567",
";  c #71BC51",
":  c #69B948",
">  c #6AB949",
",  c #AED99C",
"<  c #D7ECCF",
"1  c #FAFCF9",
"2  c #F7FBF6",
"3  c #BCDFAD",
"4  c #73BD54",
"5  c #46A91D",
"6  c #45A81C",
"7  c #54AF2E",
"8  c #66B744",
"9  c #6CBA4C",
"0  c #59B134",
"q  c #48A91F",
"w  c #4DAC25",
"e  c #68B947",
"r  c #A1D38C",
"t  c #E2F1DC",
"y  c #FDFEFD",
"u  c #FAFDFA",
"i  c #B4DCA4",
"p  c #4DAC26",
"a  c #65B743",
"s  c #9ED289",
"d  c #C1E2B3",
"f  c #D1E9C7",
"g  c #D7ECCE",
"h  c #C8E5BC",
"j  c #AAD798",
"k  c #83C568",
"l  c #55AF2F",
"z  c #49AA21",
"x  c #C5E4B9",
"c  c #DEEFD7",
"v  c #ABD899",
"b  c #ACD89A",
"n  c #BBDFAC",
"m  c #D0E9C6",
"M  c #F9FCF8",
"N  c #D2EAC9",
"B  c #64B641",
"V  c #4AAA22",
"C  c #D4EBCB",
"Z  c #ECF6E8",
"A  c #5FB43B",
"S  c #CFE8C5",
"D  c #DBEED3",
"F  c #47A91E",
"G  c #49AA20",
"H  c #4EAC27",
"J  c #5BB237",
"K  c #AAD797",
"L  c #F5FAF3",
"P  c #E8F4E3",
"I  c #3FA514",
"U  c #6CBA4B",
"Y  c #E0F0D9",
"T  c #D5EBCC",
"R  c #6FBC4F",
"E  c #7BC15E",
"W  c #EBF5E7",
"Q  c #99CF83",
"!  c #75BF57",
"~  c #A4D490",
"^  c #F6FBF5",
"/  c #9BD085",
"(  c #5AB235",
")  c #C5E3B8",
"_  c #C2E2B5",
"`  c #57B132",
"'  c #A7D694",
"]  c #F1F8EE",
"[  c #8ECA75",
"{  c #53AF2D",
"}  c #F4FAF2",
"|  c #8BC972",
" . c #50AD29",
".. c #56B031",
"X. c #67B845",
"o. c #A3D48F",
"O. c #9DD187",
"+. c #8FCA76",
"@. c #4FAD28",
"#. c #52AE2C",
"$. c #A2D38D",
"%. c #87C76D",
"&. c #7CC25F",
"*. c #E6F3E1",
"=. c #96CE7F",
"-. c #C0E1B2",
";. c #DCEFD5",
":. c #91CC79",
">. c #F3F9F1",
",. c #EDF6E9",
"<. c #87C76C",
"1. c #4BAB23",
"2. c #D8EDD0",
"3. c #E9F5E5",
"4. c #51AD2A",
"5. c #B1DAA0",
"6. c #EDF7EA",
"7. c #74BE55",
"8. c #E0F0DA",
"9. c #40A616",
"0. c #88C76E",
"q. c #F2F9F0",
"w. c #5CB338",
"e. c #CAE6BF",
"r. c #82C466",
"t. c #A5D591",
"y. c #60B53D",
"u. c #CDE7C2",
"i. c #D9EDD1",
"p. c #72BD53",
"a. c #CEE8C4",
"s. c #C9E6BE",
"d. c #EEF7EB",
"f. c #89C86F",
"g. c #68B846",
"h. c #AFDA9E",
"j. c #B6DDA6",
"k. c #52AE2B",
"l. c #79C05B",
"z. c #76BF58",
"x. c #5DB339",
"c. c #CCE7C1",
"v. c #F0F8ED",
"b. c #44A71A",
"n. c #9AD084",
"m. c #E8F4E4",
"M. c #7EC362",
"N. c #94CD7D",
"B. c #F1F8EF",
"V. c #BCE0AE",
"C. c #5FB43C",
"Z. c #63B640",
"A. c #CEE8C3",
"S. c #56B030",
"D. c #4CAB24",
"F. c #92CC7A",
"G. c #B8DDA8",
"H. c #C7E5BB",
"J. c #8DCA74",
"K. c #35A108",
"L. c #8CC973",
"P. c #B9DEAA",
"I. c #78C05A",
"U. c #B3DCA3",
"Y. c #329F04",
"T. c #B0DA9F",
"R. c #E4F2DF",
"E. c #A2D48E",
"W. c #7AC05C",
"Q. c #9FD28A",
"!. c #34A007",
"~. c #C1E2B4",
"^. c #8BC871",
"/. c #DFF0D8",
"(. c #A8D695",
"). c #8AC870",
"_. c #B3DBA2",
"`. c #DAEDD2",
"'. c #3CA411",
"]. c #61B53E",
"[. c #94CD7C",
"{. c #93CC7B",
"}. c #A0D28B",
"|. c #6BBA4A",
" X c #DBEED4",
".X c #B7DDA7",
"XX c #85C66A",
"oX c #43A719",
"OX c #75BE56",
"+X c #C9E5BD",
"@X c #A6D592",
"#X c #42A718",
"$X c #ADD89B",
"%X c #6DBB4D",
"&X c #7AC15D",
"*X c #E1F1DB",
"=X c #77BF59",
"-X c #BADFAB",
";X c #5EB43A",
":X c #84C569",
">X c #E7F3E2",
",X c #A9D796",
"<X c #97CE80",
"1X c #B5DCA5",
"2X c #F6FAF4",
"3X c #E3F2DD",
"4X c #62B53F",
"5X c #45A81B",
"6X c #6EBB4E",
"7X c #7FC363",
"8X c #71BD52",
"9X c #DDEFD6",
"0X c #5BB236",
"qX c #EFF7EC",
"wX c #90CB78",
"eX c #64B742",
"rX c #58B133",
"tX c #CBE7C0",
"yX c #86C66B",
"uX c #BEE0B0",
"iX c #7EC261",
"pX c #A6D593",
"aX c #BFE1B1",
/* pixels */
"                                                                                                                                ",
"                                                                                                                                ",
"                                                                                                                                ",
"                                                                                                                                ",
"                                                                                                                                ",
"                                                                                                                                ",
"                                                                                                                                ",
"                                                                                                                                ",
"                                                                                                                                ",
"                            . X o O + @ # $                                                                                     ",
"                        % & * = - ; : > - , < 1                                                                                 ",
"                      2 3 4 5 6 7 8 9 0 q w e r t %                           y u %                                             ",
"                    u i 7 p a s d f g h j k l z 9 x u                     % c , v b * n m M                                     ",
"                  y N B V k C u         y Z i 9 6 A S .                 . D 9 F q q G H J K L                                   ",
"                . P 4 I U Y .               $ T R F E W               . Z - V B r j Q ! z 7 ~ ^                                 ",
"                ^ / F ( ) %                   y _ ` q ' $             ] [ z { i $ % } t |  ...v M                               ",
"                O X.H o.M                       M O.w +.W           M K @.#.$.2       . Z %.z ` 3 %                             ",
"              u K @.&.o                           *.=.-.}           ;.: V :.>.          . ,.<.1.a 2..                           ",
"              3.<.4.5.%                           % 6.} .         y * @.7.8..               o ; 9.0.q.                          ",
"              D 4 w.e.                                            Z r.z t.u                 % -.0 y.u.                          ",
"              i.p.8 m                                             a.w.( s.                    d.f.w t.1                         ",
"              i.4 g.m                                           y h.q 7.t                     y j.k.l.&                         ",
"              D z.x.c.                                          v.%.b.n.M                       < e  .3 .                       ",
"              m.M.b.+.] .                                       < : { d                         ^ N.b.| B.                      ",
"              % b q l [ N } .                                   V.1.a <                           c.C.Z.A.                      ",
"                6.+.S.D.8 F.G.H.f 8.} .                       $ J.K.y.Y                           v.L.1.' u                     ",
"                . ] P.I.7 q  .J X.&.N.U.2.u                   1 E Y.g.Z                           y T.V +.d.                    ",
"                    $ R.d E.[ W.g.0 q D.g.Q.S d.y             M <.!.%.$                             ~.{ ^.#                     ",
"                        . M Z /.+ x (.&.#.F C.)._.`.$         . ~ '.Q 1                             ~.l L.#                     ",
"                                    % P P.0.].1.w X.j ,.y       U.6 [.B.                            P.D.{.v.                    ",
"                                        y d.c.}.|.V k.r. X%     .Xz XXZ                           . , oXO.2                     ",
"                                              M `.r g.V OXt .   +X( R D                           u @X#X$X.                     ",
"                                                  M s.%XD.O.^   `.9 0 )                           L N.6 _.                      ",
"                                                    % 5.k.&X*X  P XX` _                           t =XD.P.                      ",
"                                                      @ g.e @   3.L...~.                          f g.8 @                       ",
"                                                      /.&X( h   Z [ @.-X                          +X;X&X8.                      ",
"                                                      ] {.q ' % q.n.H -X                          ~.7 :XR.                      ",
"                                                      y _.D.&.>X^ o.1.5..                       % ,XG <X}                       ",
"                                                        O g.J e.% v q [.}                       v.+.w _..                       ",
"                                                        ] ^.G 1X  V.@.g.2.                      < |.J +X                        ",
"                                                        2X=.F _.  D e z = M                     ~.{ z.Y                         ",
"                                                        3X7.H n   u (.@.4X+ .                   i G =.q.                        ",
"                                                      $ $X@.U D     W l.oX:X]                 1 ~ 5Xj %                         ",
"                                                    . D 6X1.Q.2     y e.Z.0 1X$               Z 7X5 _.                          ",
"                  u 2.a.] .                       . W L.#.8Xc         X ~ k.X.) M           X (.{ ( u.                          ",
"                  9Xr.e ).x L .                 . 3.| 4.0X3 $           o p.9.Z.= h qXM ] `.Q.0XV wXB.                          ",
"                  L h.eX5 rXF.tXd.$         y B.h XXw #.s }             y `.&X#.q 0 yX}.L.R H D.7X& .                           ",
"                  . L a.f.` D.4X^.$XuX~.~.P.b yXC.4.J t.B..               y Z i iXJ V F F J I.pXm.y                             ",
"                      y B.aX| B p V k.7 k.V oXI ` L.H.^                       % 3.u.1X_.T.+X*XX                                 ",
"                          y v.m U.Q J.f.| [.Q.@X+XqXy                                                                           ",
"                                y >.W 3.# v.M .                                                                                 ",
"                                                                                                                                ",
"                                                                                                                                ",
"                                                                                                                                ",
"                                                                                                                                ",
"                                                                                                                                ",
"                                                                                                                                ",
"                                                                                                                                ",
"                                                                                                                                ",
"                                                                                                                                ",
"                                                                                                                                ",
"                                                                                                                                ",
"                                                                                                                                ",
"                                                                                                                                "
};
