/* XPM */
static char *bfe2c20706894b76ad32041b1800f8f7MOnF04FBEzHEidFF[] = {
/* columns rows colors chars-per-pixel */
"64 64 230 2 ",
"   c white",
".  c #FEFEFE",
"X  c #FEFBFB",
"o  c #FEFAFA",
"O  c #FCF0EE",
"+  c #F6C3BB",
"@  c #F19C8E",
"#  c #F19F91",
"$  c #F19E90",
"%  c #F2A79A",
"&  c #F6C0B7",
"*  c #FCEEEC",
"=  c #FDF7F6",
"-  c #FEF9F9",
";  c #F7C8C0",
":  c #ED8573",
">  c #E64D33",
",  c #E23315",
"<  c #E23416",
"1  c #E33619",
"2  c #E54A30",
"3  c #ED7F6C",
"4  c #F7C6BE",
"5  c #FEF8F8",
"6  c #FEF8F7",
"7  c #F7C9C1",
"8  c #FCEDEB",
"9  c #FBE9E6",
"0  c #F9D8D3",
"q  c #F3ACA0",
"w  c #E65036",
"e  c #E43F23",
"r  c #E65037",
"t  c #EC7D6A",
"y  c #F2A497",
"u  c #F1A092",
"i  c #ED7F6D",
"p  c #E7543B",
"a  c #E33C20",
"s  c #F2A295",
"d  c #ED806E",
"f  c #FCEAE8",
"g  c #FDF1EF",
"h  c #EE8A79",
"j  c #E5472C",
"k  c #EF9282",
"l  c #FEFCFC",
"z  c #F5BCB3",
"x  c #E54B31",
"c  c #E43D21",
"v  c #EB725E",
"b  c #F6BFB6",
"n  c #FEFDFD",
"m  c #FCEFED",
"M  c #F7C9C2",
"N  c #ED7E6B",
"B  c #E44125",
"V  c #E5452A",
"C  c #E12E10",
"Z  c #E3391C",
"A  c #F1A194",
"S  c #E5492E",
"D  c #F4B6AC",
"F  c #FBE8E5",
"G  c #EB705B",
"H  c #E33A1D",
"J  c #EB7460",
"K  c #FBE4E0",
"L  c #ED8371",
"P  c #E44024",
"I  c #E85F48",
"U  c #F8D2CC",
"Y  c #F3AEA2",
"T  c #E9634C",
"R  c #F9D6D0",
"E  c #F8CEC7",
"W  c #ED8270",
"Q  c #F4B3A8",
"!  c #E44227",
"~  c #FBE6E3",
"^  c #FCECEA",
"/  c #F4B0A5",
"(  c #E33B1E",
")  c #E7563E",
"_  c #E44226",
"`  c #EE8776",
"'  c #FDF1F0",
"]  c #FDF6F5",
"[  c #E23012",
"{  c #E9654F",
"}  c #FAE2DE",
"|  c #E23517",
" . c #EE8978",
".. c #E75840",
"X. c #E5482D",
"o. c #F3ADA1",
"O. c #E65138",
"+. c #E5492F",
"@. c #F4B5AB",
"#. c #FAE1DD",
"$. c #EB715C",
"%. c #E43E22",
"&. c #F9D5CF",
"*. c #E7573F",
"=. c #E44429",
"-. c #FBE3DF",
";. c #F8D1CB",
":. c #F7CCC5",
">. c #EE8B7A",
",. c #E12B0C",
"<. c #E64C32",
"1. c #EA6F5A",
"2. c #F4B2A7",
"3. c #F09586",
"4. c #F9D4CE",
"5. c #E96852",
"6. c #F3AFA4",
"7. c #E7553C",
"8. c #EA6B56",
"9. c #F9D9D4",
"0. c #E85E47",
"q. c #E02404",
"w. c #E85D45",
"e. c #FCEBE9",
"r. c #F2A89C",
"t. c #EA6C57",
"y. c #EF9080",
"u. c #F3AA9E",
"i. c #EC7966",
"p. c #FBE4E1",
"a. c #E8614A",
"s. c #E02606",
"d. c #FADBD6",
"f. c #F5BBB2",
"g. c #FADCD7",
"h. c #F5B8AE",
"j. c #E5462B",
"k. c #EF8E7E",
"l. c #E22F11",
"z. c #F1A093",
"x. c #F09788",
"c. c #E3381B",
"v. c #FDF5F4",
"b. c #F6C1B8",
"n. c #EC7B68",
"m. c #F2A396",
"M. c #F3A99D",
"N. c #F19B8D",
"B. c #FBE7E4",
"V. c #E7563D",
"C. c #EA6D58",
"Z. c #FDF4F3",
"A. c #F09485",
"S. c #F3AEA3",
"D. c #F7C7BF",
"F. c #E7533A",
"G. c #EB715D",
"H. c #FADDD8",
"J. c #F8CDC6",
"K. c #E85C44",
"L. c #EA6953",
"P. c #F9D6D1",
"I. c #F0998A",
"U. c #EE8574",
"Y. c #FBE5E2",
"T. c #F6BEB5",
"R. c #E23518",
"E. c #EA6B55",
"W. c #E85A42",
"Q. c #E85D46",
"!. c #EA6E59",
"~. c #F19A8C",
"^. c #F8CFC8",
"/. c #EA6A54",
"(. c #F9D7D2",
"). c #F8D0CA",
"_. c #E9624B",
"`. c #EF8D7D",
"'. c #F4B5AA",
"]. c #FAE0DC",
"[. c #EC7C69",
"{. c #E65239",
"}. c #EB7561",
"|. c #FADEDA",
" X c #F9DAD5",
".X c #E96650",
"XX c #E44328",
"oX c #F7CBC4",
"OX c #ED8472",
"+X c #E86049",
"@X c #F6C2BA",
"#X c #EC7865",
"$X c #E9644D",
"%X c #FADFDB",
"&X c #F5BAB0",
"*X c #EE8675",
"=X c #E96751",
"-X c #FDF2F1",
";X c #F09384",
":X c #EE8877",
">X c #F6C2B9",
",X c #EF8C7C",
"<X c #EC7A67",
"1X c #EC7864",
"2X c #F5BDB4",
"3X c #F2A598",
"4X c #F5B9AF",
"5X c #FCEAE7",
"6X c #ED816F",
"7X c #F5B7AD",
"8X c #EC7763",
"9X c #FDF3F2",
"0X c #F5BBB1",
"qX c #E64E34",
"wX c #E85B43",
"eX c #F09687",
"rX c #F4B1A6",
"tX c #EF8F7F",
"yX c #EB735F",
"uX c #F6C5BD",
"iX c #EE8C7B",
"pX c #EF9383",
"aX c #EB7662",
"sX c #E23113",
"dX c #E12C0D",
"fX c #E33B1F",
"gX c #FADDD9",
"hX c #E64F35",
"jX c #F8CFC9",
"kX c #E23214",
/* pixels */
"                                                                                                                                ",
"                                                                                                                                ",
"                                                                                                                                ",
"                                                                                                                                ",
"                                                                                                                                ",
"                                                                                                                                ",
"                                                                                                                                ",
"                                                                                                                                ",
"                                                                                                                                ",
"                                                                                                                                ",
"                                                                                                                                ",
"                                                                                . X o o .                                       ",
"                                                                            . O + @ # $ % & * .                                 ",
"                                                            . = X         - ; : > , < < 1 2 3 4 5                               ",
"                        6 7 8 .                           . 9 % 0 o     6 q w e r t y u i p a w s 6                             ",
"                        & > d f                           g h j k *   l z x c v b g . n m M N B V q X                           ",
"                        u C Z A -                       5 % S 2 D l   F G H J K .         . 8 L P I U .                         ",
"                        Y , H T R .                   . E w H W O   l Q ! p M .               ~ J B t ^                         ",
"                        / ( ) _ ` '                   ] ` [ { } .   O W |  .]                 n M ..X.o.X                       ",
"                        / c i O.+.@.l                 #.$.%.Y n     &.*.B D .                   - # =.G -.                      ",
"                        / c @ k %.J F                 ;.I ) :.    o >.,.<.;.                      #.1.X.q l                     ",
"                        2.e 3.4.5.2 6.l               ; 7.8.9.    f 0.q.w.e.                      l r.V t.}                     ",
"                        D ! y.8 u.+.i.~               b <.N p.    9 a.s.i.5                         d.T c Y .                   ",
"                        f.S ` e.g.8.> Q l             h.j.k.*     O L l.z..                         - x.c.k v.                  ",
"                        b.> n.p.6 m.X.v p.          n M.P N.=     n @ [ A .                           f.j.3 B.                  ",
"                        ; V.C.9.. &.I ! 2..         Z.A._ S..       u.< u o                           D.F.G.H.                  ",
"                        J.K.L.P.  o I.( U.O         Y.N <.T.        q R.# -                           E K.E.P.                  ",
"                        E w.5.P.    J.W.Q.E         9.!...M         q R.~.5                           ^.Q.L.P.                  ",
"                        E K./.(.    8 : V A -       )._._.;.        2.H `.'                           ^.Q.L.P.                  ",
"                        M ..1.d.    n '.> G ].      E I L.P.        z =.[.~                           ^.Q.L.P.                  ",
"                        4 {.}.|.      #.v x Q n     E I E.P.        D.{.L. X                          ^.Q.L.P.                  ",
"                        T.+.N ~       5 m.j }.B.    E I E.P.        P..Xp 7                           E w.L.P.                  ",
"                        @.B  .*       . (.{ XX'.n   E I E.P.        9 i V @..                         oX..C.9.                  ",
"                        2.e A.'         X @ H OXO   ^.+X/.R         ] I.%.3.v.                        @Xw #X}                   ",
"                      X m.c.s l           U K.W.oX  U $X$XU         . f.> v %X                        &Xj.` f                   ",
"                      5 @ c.o.            ^ *XV m.5 R 5.+X^.          (.=X{.T..                     . S.%.I.=                   ",
"                      ' `.c.Y             n 2.S 1.].P.8.0.E           -X;Xj.y.g                     - # a r.n                   ",
"                      O :X( Q               } $.+.'.9.$...M           . >XV..X0                     8 ,X=.D                     ",
"                      ~ <X! &X              - m.=.,XR n.O.>X            Y.1X=.M.l                   } 1X2 2X                    ",
"                      g.E.> +                 ; ) a.@XW > T.            - # a L.].                  R =XW.oX                    ",
"                      M p ..J.                Y.#XP 3XU.x T.              g.5.S % -                 D.7.!.9.                    ",
"                    . 4XX.N B.                - x., :X .j 4X              X M.X..Xd.              n / =.: 5X                    ",
"                    6 @ e # 5                   h.! L.6X=.7X                B.8XV y.9X            O  .! y -                     ",
"                    ~ n.=.'..                   0 { X.G.! D                 n 0XqXx z.Z.          &._.p D.                      ",
"                    U I wXJ.                    = eXP wXa rX                  v.k ! {.tX7 -X.   l Y XXyX#.                      ",
"                  n q c G.-.                    . uX{.%.| o.                    8 iX<.%.w ` q @.3X+X, pX-                       ",
"                  ^ aXR.eX-                       O W sXdX3.o                   . g 7XJ =.fXa P c %.$XgX                        ",
"                  b.hXF.:.                        . M _ s.T e.                      n F z r.@ 3.eXy |.l                         ",
"                  jX!.o.]                           5 >.kXK.R                             . 5 -X9XX                             ",
"                  - (.=                               g r.M 5                                                                   ",
"                                                        . .                                                                     ",
"                                                                                                                                ",
"                                                                                                                                ",
"                                                                                                                                ",
"                                                                                                                                ",
"                                                                                                                                ",
"                                                                                                                                ",
"                                                                                                                                ",
"                                                                                                                                ",
"                                                                                                                                ",
"                                                                                                                                ",
"                                                                                                                                ",
"                                                                                                                                ",
"                                                                                                                                "
};
