/* XPM */
static char *_521a9740a96463ff1eeb1b86fa8d4e3Xv7DmbetImDqUi52[] = {
/* columns rows colors chars-per-pixel */
"64 64 229 2 ",
"   c white",
".  c #FFFDF8",
"X  c #FFF7DE",
"o  c #FFEFBB",
"O  c #FFEFBD",
"+  c #FFF1C5",
"@  c #FFF3CE",
"#  c #FFF6DC",
"$  c #FFF9E9",
"%  c #FFFDFA",
"&  c #FFF3CC",
"*  c #FFE38A",
"=  c #FFD759",
"-  c #FFCF33",
";  c #FFD13C",
":  c #FFD449",
">  c #FFD95E",
",  c #FFDE75",
"<  c #FFE592",
"1  c #FFEAA6",
"2  c #FFEEBA",
"3  c #FFF1C7",
"4  c #FFF4D2",
"5  c #FFFAEA",
"6  c #FFFEFD",
"7  c #FFF5D5",
"8  c #FFD54E",
"9  c #FFC91C",
"0  c #FFCB25",
"q  c #FFD13E",
"w  c #FFD652",
"e  c #FFD348",
"r  c #FFD03A",
"t  c #FFCE32",
"y  c #FFCC28",
"u  c #FFCA20",
"i  c #FFCB24",
"p  c #FFCF35",
"a  c #FFD345",
"s  c #FFD756",
"d  c #FFE594",
"f  c #FFFAEB",
"g  c #FFFDF9",
"h  c #FFF5D6",
"j  c #FFFBEF",
"k  c #FFFEFE",
"l  c #FFF3D0",
"z  c #FFD44B",
"x  c #FFE287",
"c  c #FFF2C9",
"v  c #FFF3CD",
"b  c #FFF0C0",
"n  c #FFEEB8",
"m  c #FFEBAB",
"M  c #FFE698",
"N  c #FFE07D",
"B  c #FFDA64",
"V  c #FFD550",
"C  c #FFD346",
"Z  c #FFDE76",
"A  c #FFFCF5",
"S  c #FFE79A",
"D  c #FFD651",
"F  c #FFDF7A",
"G  c #FFEEB9",
"H  c #FFD54D",
"J  c #FFD13F",
"K  c #FFF1C6",
"L  c #FFFEFC",
"P  c #FFFBEE",
"I  c #FFF7DD",
"U  c #FFF0C3",
"Y  c #FFF6D9",
"T  c #FFFEFB",
"R  c #FFEBAE",
"E  c #FFCC29",
"W  c #FFC818",
"Q  c #FFDD71",
"!  c #FFF9E8",
"~  c #FFDA62",
"^  c #FFCA1E",
"/  c #FFD757",
"(  c #FFDE74",
")  c #FFD241",
"_  c #FFD240",
"`  c #FFE89F",
"'  c #FFFCF6",
"]  c #FFCD2E",
"[  c #FFF0C2",
"{  c #FFF0C1",
"}  c #FFCE31",
"|  c #FFCF37",
" . c #FFE79B",
".. c #FFD44A",
"X. c #FFF3CF",
"o. c #FFDB69",
"O. c #FFE07E",
"+. c #FFFCF4",
"@. c #FFDF79",
"#. c #FFCC27",
"$. c #FFECB2",
"%. c #FFECAF",
"&. c #FFDB68",
"*. c #FFF8E4",
"=. c #FFF9E6",
"-. c #FFDC6D",
";. c #FFCD2C",
":. c #FFE79C",
">. c #FFCA21",
",. c #FFE285",
"<. c #FFFCF3",
"1. c #FFEBAA",
"2. c #FFCC2A",
"3. c #FFDC6E",
"4. c #FFD85A",
"5. c #FFFBF2",
"6. c #FFFBF1",
"7. c #FFE181",
"8. c #FFCB23",
"9. c #FFE8A1",
"0. c #FFCE30",
"q. c #FFE8A0",
"w. c #FFDA65",
"e. c #FFCF34",
"r. c #FFD653",
"t. c #FFEEB7",
"y. c #FFE48E",
"u. c #FFF2CB",
"i. c #FFD44C",
"p. c #FFECB0",
"a. c #FFD85C",
"s. c #FFF6DB",
"d. c #FFDB66",
"f. c #FFDD6F",
"g. c #FFD85D",
"h. c #FFCB26",
"j. c #FFE38B",
"k. c #FFE48D",
"l. c #FFD038",
"z. c #FFDB67",
"x. c #FFF7E1",
"c. c #FFDC6C",
"v. c #FFECB1",
"b. c #FFE89E",
"n. c #FFEDB3",
"m. c #FFEDB6",
"M. c #FFDD70",
"N. c #FFDA63",
"B. c #FFE07F",
"V. c #FFD654",
"C. c #FFECB3",
"Z. c #FFCD2D",
"A. c #FFD656",
"S. c #FFEAAC",
"D. c #FFF7E0",
"F. c #FFF6DA",
"G. c #FFEFBE",
"H. c #FFF7DF",
"J. c #FFE180",
"K. c #FFFDF7",
"L. c #FFE9A5",
"P. c #FFC91B",
"I. c #FFC91E",
"U. c #FFCF36",
"Y. c #FFD13D",
"T. c #FFE284",
"R. c #FFF8E5",
"E. c #FFF9EA",
"W. c #FFE595",
"Q. c #FFCE2F",
"!. c #FFCE33",
"~. c #FFE9A7",
"^. c #FFDC6B",
"/. c #FFE9A4",
"(. c #FFD962",
"). c #FFCF38",
"_. c #FFEDB7",
"`. c #FFEAA9",
"'. c #FFE9A3",
"]. c #FFE9A2",
"[. c #FFDE73",
"{. c #FFCA23",
"}. c #FFECB4",
"|. c #FFD85F",
" X c #FFFAED",
".X c #FFCA1F",
"XX c #FFD44D",
"oX c #FFDD72",
"OX c #FFC407",
"+X c #FFC713",
"@X c #FFD243",
"#X c #FFE593",
"$X c #FFE38C",
"%X c #FFCB22",
"&X c #FFF8E3",
"*X c #FFDB6A",
"=X c #FFF9E7",
"-X c #FFD95F",
";X c #FFC819",
":X c #FFEDB5",
">X c #FFF4D1",
",X c #FFF5D8",
"<X c #FFDF78",
"1X c #FFF2C8",
"2X c #FFF4D3",
"3X c #FFEFBF",
"4X c #FFEBAD",
"5X c #FFEBAC",
"6X c #FFE79D",
"7X c #FFE183",
"8X c #FFEFBC",
"9X c #FFD039",
"0X c #FFF2CA",
"qX c #FFD54F",
"wX c #FFCD2B",
"eX c #FFE695",
"rX c #FFFAEC",
"tX c #FFEAA7",
"yX c #FFF4D4",
"uX c #FFDF7B",
"iX c #FFC817",
"pX c #FFD960",
"aX c #FFE697",
"sX c #FFD242",
"dX c #FFC50C",
"fX c #FFE799",
"gX c #FFC91A",
"hX c #FFE696",
"jX c #FFFBF0",
/* pixels */
"                                                                                                                                ",
"                                                                                                                                ",
"                                                                                                                                ",
"                                                                                                                                ",
"                                                                                                                                ",
"                                                                                                                                ",
"                                                                                                                                ",
"                                                                                                                                ",
"                                                                                                                                ",
"                                                                                                                                ",
"                                                                                                                                ",
"                                                                                                                                ",
"                      . X o O + @ # $ %                                                                                         ",
"                  % & * = - - ; : > , < 1 2 3 4 5 6                                                                             ",
"                  7 8 9 0 q w e r t y u i p a s d f                     g h j k                                                 ",
"                  l z t x c h v b n m M N B V C Z X                   A S D F G f 6                                             ",
"                  l H J K             L P I l U Y T                 6 R E W u r Q b .                                           ",
"                  l H J K                                           ! ~ ^ / ( ) E _ ` '                                         ",
"                  v C _ K                                         6 m ] _ [ j { Q } |  ..                                       ",
"                  O p ..X.                                        $ o.9 O.+.  k $ @.#.p $.L                                     ",
"                  %.E &.*.                                        3 ) r { k     k =.-.;./ I                                     ",
"                L :.>.,.<.                                      k 1.2.3.!         k Y 4.i F 5.                                  ",
"                6.7.8.9.k                                       <.7.>.< %           L $.| 0.q.%                                 ",
"                X w.e.G                                         7 r.e.t.              . y.] r.l k                               ",
"                u.i.i.&                                       k p.} a.s.                *.d.} f.$                               ",
"                b J g.Y                                       +.x h.j.A                 6 [ : ;.k.'                             ",
"                2 l.z.X                                       x.c.0.v.k                   . b.p J n.L                           ",
"                m.- M.*.                                      s.N.r O                       6.B.;.V.#                           ",
"                C.Z.A.S.b b U D.L                             F.~ ; G.                      k H.a.8.J.K.                        ",
"                L.P.I.U.Y.Y.C T.R.                            F.~ ; G.                    6 g E.W.Q.!.v.L                       ",
"                ~.^ 2.A.~ ~ ^./.P                             s.(.)._.R.Y u.o `./.'.'.'.].M < [.g.s {.~ R.                      ",
"                }.] |.[ F.F.#  X6                             x.w.u ~ -.s C t 8..X.X.X.X^ P..X>.p O.XX0.1.6                     ",
"                m.- oXR.                                      *.8 OX+X0 0.@X= c.j.d d d d #Xq.'.t.x.$X%Xf.f                     ",
"                m.- oXR.                                      &X*X>.oXR 2 c Y =XK.% % % % L         { ; C u.                    ",
"                m.- oXR.                                      H.z.| 2                               &Xz.#.m k                   ",
"                m.- oXR.                                      F.-Xr O                               % k.;XB.A                   ",
"                :Xt ( R.                                      >Xw _ U                                 :XZ.s ,X                  ",
"                v.] <X!                                       1XC ..&                                 2XD l.3X                  ",
"                4XE O.P                                       3 a D >X                                 X@.i q.L                 ",
"                5X2.M.=X                                      3 a w >X                                6 6X>.7X5.                ",
"                8X9Xg.Y                                       3 a w >X                                  n.] &.x.                ",
"                & H C 0X                                      1XC qXl                                   3XY.: v                 ",
"                x.&.wXR                               k +.T   v z a 3                                   s.a.Z.`.6               ",
"                . k.u eXT   6 6.rX*.F.>X>X>XX.1X3 + o tXQ 9.<.yXg.w 0X                                  +.uXiX~ $               ",
"                k /.>.pX'.` aX7X<X*X= V 8 H ..sX_ Y.e.>.dX#.n +.3X:X6.                                  k fXgXJ 1X              ",
"                  v.h.u %X;XW ^ %Xy } q _ _ sX..H V g.d.r.x 5 k . K.k                                     &XJ.L.6.              ",
"                  P S 7.7Xx hX/.5Xv.2 + 3 3 1XX.l >Xs.&XR.6.k                                             6 j ' k               ",
"                  k K.6.jXK.6                                                                                                   ",
"                                                                                                                                ",
"                                                                                                                                ",
"                                                                                                                                ",
"                                                                                                                                ",
"                                                                                                                                ",
"                                                                                                                                ",
"                                                                                                                                ",
"                                                                                                                                ",
"                                                                                                                                ",
"                                                                                                                                ",
"                                                                                                                                ",
"                                                                                                                                ",
"                                                                                                                                ",
"                                                                                                                                ",
"                                                                                                                                ",
"                                                                                                                                "
};
